<?xml version="1.0" encoding="iso-8859-1"?>
<!-- Generator: Adobe Illustrator 19.0.0, SVG Export Plug-In . SVG Version: 6.00 Build 0)  -->
<svg version="1.1" id="Layer_1" xmlns="http://www.w3.org/2000/svg" xmlns:xlink="http://www.w3.org/1999/xlink" x="0px" y="0px"
	 viewBox="0 0 512 512" style="enable-background:new 0 0 512 512;" xml:space="preserve">
<path style="fill:#E2E7F2;" d="M487.226,462.452H24.774C11.092,462.452,0,451.36,0,437.677V107.355
	c0-13.682,11.092-24.774,24.774-24.774h462.452c13.682,0,24.774,11.092,24.774,24.774v330.323
	C512,451.36,500.908,462.452,487.226,462.452z"/>
<path style="fill:#B4E66E;" d="M487.226,82.581H24.774C11.092,82.581,0,93.672,0,107.355v24.774h512v-24.774
	C512,93.672,500.908,82.581,487.226,82.581z"/>
<g>
	<path style="fill:#A0D755;" d="M57.806,115.613h16.516c13.682,0,24.774-11.092,24.774-24.774v-8.258H33.032v8.258
		C33.032,104.521,44.124,115.613,57.806,115.613z"/>
	<path style="fill:#A0D755;" d="M437.677,115.613h16.516c13.682,0,24.774-11.092,24.774-24.774v-8.258h-66.065v8.258
		C412.903,104.521,423.995,115.613,437.677,115.613z"/>
</g>
<path style="fill:#AFB9D2;" d="M74.323,99.097H57.806c-4.561,0-8.258-3.697-8.258-8.258V57.806c0-4.561,3.697-8.258,8.258-8.258
	h16.516c4.561,0,8.258,3.697,8.258,8.258v33.032C82.581,95.4,78.883,99.097,74.323,99.097z"/>
<path style="fill:#C7CFE2;" d="M74.323,74.323H57.806c-4.561,0-8.258-3.697-8.258-8.258v-8.258c0-4.561,3.697-8.258,8.258-8.258
	h16.516c4.561,0,8.258,3.697,8.258,8.258v8.258C82.581,70.625,78.883,74.323,74.323,74.323z"/>
<path style="fill:#AFB9D2;" d="M454.194,99.097h-16.516c-4.561,0-8.258-3.697-8.258-8.258V57.806c0-4.561,3.697-8.258,8.258-8.258
	h16.516c4.561,0,8.258,3.697,8.258,8.258v33.032C462.452,95.4,458.754,99.097,454.194,99.097z"/>
<path style="fill:#C7CFE2;" d="M454.194,74.323h-16.516c-4.561,0-8.258-3.697-8.258-8.258v-8.258c0-4.561,3.697-8.258,8.258-8.258
	h16.516c4.561,0,8.258,3.697,8.258,8.258v8.258C462.452,70.625,458.754,74.323,454.194,74.323z"/>
<rect y="132.13" style="fill:#D5DCED;" width="512" height="16.516"/>
<g>
	<path style="fill:#FFFFFF;" d="M107.355,214.71H57.806c-4.561,0-8.258-3.697-8.258-8.258v-16.516c0-4.561,3.697-8.258,8.258-8.258
		h49.548c4.561,0,8.258,3.697,8.258,8.258v16.516C115.613,211.012,111.916,214.71,107.355,214.71z"/>
	<path style="fill:#FFFFFF;" d="M107.355,280.774H57.806c-4.561,0-8.258-3.697-8.258-8.258V256c0-4.561,3.697-8.258,8.258-8.258
		h49.548c4.561,0,8.258,3.697,8.258,8.258v16.516C115.613,277.077,111.916,280.774,107.355,280.774z"/>
	<path style="fill:#FFFFFF;" d="M107.355,346.839H57.806c-4.561,0-8.258-3.697-8.258-8.258v-16.516c0-4.561,3.697-8.258,8.258-8.258
		h49.548c4.561,0,8.258,3.697,8.258,8.258v16.516C115.613,343.141,111.916,346.839,107.355,346.839z"/>
	<path style="fill:#FFFFFF;" d="M222.968,346.839H173.42c-4.561,0-8.258-3.697-8.258-8.258v-16.516c0-4.561,3.697-8.258,8.258-8.258
		h49.548c4.561,0,8.258,3.697,8.258,8.258v16.516C231.226,343.141,227.529,346.839,222.968,346.839z"/>
	<path style="fill:#FFFFFF;" d="M338.581,346.839h-49.548c-4.561,0-8.258-3.697-8.258-8.258v-16.516
		c0-4.561,3.697-8.258,8.258-8.258h49.548c4.561,0,8.258,3.697,8.258,8.258v16.516C346.839,343.141,343.141,346.839,338.581,346.839
		z"/>
	<path style="fill:#FFFFFF;" d="M222.968,280.774H173.42c-4.561,0-8.258-3.697-8.258-8.258V256c0-4.561,3.697-8.258,8.258-8.258
		h49.548c4.561,0,8.258,3.697,8.258,8.258v16.516C231.226,277.077,227.529,280.774,222.968,280.774z"/>
	<path style="fill:#FFFFFF;" d="M107.355,412.903H57.806c-4.561,0-8.258-3.697-8.258-8.258v-16.516c0-4.561,3.697-8.258,8.258-8.258
		h49.548c4.561,0,8.258,3.697,8.258,8.258v16.516C115.613,409.206,111.916,412.903,107.355,412.903z"/>
	<path style="fill:#FFFFFF;" d="M222.968,214.71H173.42c-4.561,0-8.258-3.697-8.258-8.258v-16.516c0-4.561,3.697-8.258,8.258-8.258
		h49.548c4.561,0,8.258,3.697,8.258,8.258v16.516C231.226,211.012,227.529,214.71,222.968,214.71z"/>
	<path style="fill:#FFFFFF;" d="M222.968,412.903H173.42c-4.561,0-8.258-3.697-8.258-8.258v-16.516c0-4.561,3.697-8.258,8.258-8.258
		h49.548c4.561,0,8.258,3.697,8.258,8.258v16.516C231.226,409.206,227.529,412.903,222.968,412.903z"/>
	<path style="fill:#FFFFFF;" d="M454.194,346.839h-49.548c-4.561,0-8.258-3.697-8.258-8.258v-16.516
		c0-4.561,3.697-8.258,8.258-8.258h49.548c4.561,0,8.258,3.697,8.258,8.258v16.516C462.452,343.141,458.754,346.839,454.194,346.839
		z"/>
	<path style="fill:#FFFFFF;" d="M454.194,214.71h-49.548c-4.561,0-8.258-3.697-8.258-8.258v-16.516c0-4.561,3.697-8.258,8.258-8.258
		h49.548c4.561,0,8.258,3.697,8.258,8.258v16.516C462.452,211.012,458.754,214.71,454.194,214.71z"/>
	<path style="fill:#FFFFFF;" d="M454.194,412.903h-49.548c-4.561,0-8.258-3.697-8.258-8.258v-16.516
		c0-4.561,3.697-8.258,8.258-8.258h49.548c4.561,0,8.258,3.697,8.258,8.258v16.516C462.452,409.206,458.754,412.903,454.194,412.903
		z"/>
	<path style="fill:#FFFFFF;" d="M338.581,280.774h-49.548c-4.561,0-8.258-3.697-8.258-8.258V256c0-4.561,3.697-8.258,8.258-8.258
		h49.548c4.561,0,8.258,3.697,8.258,8.258v16.516C346.839,277.077,343.141,280.774,338.581,280.774z"/>
	<path style="fill:#FFFFFF;" d="M338.581,214.71h-49.548c-4.561,0-8.258-3.697-8.258-8.258v-16.516c0-4.561,3.697-8.258,8.258-8.258
		h49.548c4.561,0,8.258,3.697,8.258,8.258v16.516C346.839,211.012,343.141,214.71,338.581,214.71z"/>
	<path style="fill:#FFFFFF;" d="M454.194,280.774h-49.548c-4.561,0-8.258-3.697-8.258-8.258V256c0-4.561,3.697-8.258,8.258-8.258
		h49.548c4.561,0,8.258,3.697,8.258,8.258v16.516C462.452,277.077,458.754,280.774,454.194,280.774z"/>
	<path style="fill:#FFFFFF;" d="M338.581,412.903h-49.548c-4.561,0-8.258-3.697-8.258-8.258v-16.516
		c0-4.561,3.697-8.258,8.258-8.258h49.548c4.561,0,8.258,3.697,8.258,8.258v16.516C346.839,409.206,343.141,412.903,338.581,412.903
		z"/>
</g>
<g>
	<path style="fill:#B4E66E;" d="M421.161,289.032c-2.113,0-4.226-0.806-5.839-2.419l-16.516-16.516
		c-3.226-3.226-3.226-8.452,0-11.677c3.226-3.226,8.452-3.226,11.677,0l10.677,10.677l27.194-27.194
		c3.226-3.226,8.452-3.226,11.677,0c3.226,3.226,3.226,8.452,0,11.677L427,286.613C425.387,288.226,423.274,289.032,421.161,289.032
		z"/>
	<path style="fill:#B4E66E;" d="M189.935,289.032c-2.113,0-4.226-0.806-5.839-2.419l-16.516-16.516
		c-3.226-3.226-3.226-8.452,0-11.677c3.226-3.226,8.452-3.226,11.677,0l10.677,10.677l27.194-27.194
		c3.226-3.226,8.452-3.226,11.677,0c3.226,3.226,3.226,8.452,0,11.677l-33.032,33.032
		C194.161,288.226,192.048,289.032,189.935,289.032z"/>
	<path style="fill:#B4E66E;" d="M305.548,355.097c-2.113,0-4.226-0.806-5.839-2.419l-16.516-16.516
		c-3.226-3.226-3.226-8.452,0-11.677s8.452-3.226,11.677,0l10.677,10.677l27.194-27.194c3.226-3.226,8.452-3.226,11.677,0
		c3.226,3.226,3.226,8.452,0,11.677l-33.032,33.032C309.774,354.29,307.661,355.097,305.548,355.097z"/>
	<path style="fill:#B4E66E;" d="M74.323,421.161c-2.113,0-4.226-0.806-5.839-2.419l-16.516-16.516
		c-3.226-3.226-3.226-8.452,0-11.677s8.452-3.226,11.677,0l10.677,10.677l27.194-27.194c3.226-3.226,8.452-3.226,11.677,0
		c3.226,3.226,3.226,8.452,0,11.677l-33.032,33.032C78.548,420.355,76.435,421.161,74.323,421.161z"/>
	<path style="fill:#B4E66E;" d="M305.548,222.968c-2.113,0-4.226-0.806-5.839-2.419l-16.516-16.516
		c-3.226-3.226-3.226-8.452,0-11.677c3.226-3.226,8.452-3.226,11.677,0l10.677,10.677l27.194-27.194
		c3.226-3.226,8.452-3.226,11.677,0c3.226,3.226,3.226,8.452,0,11.677l-33.032,33.032
		C309.774,222.161,307.661,222.968,305.548,222.968z"/>
</g>
<g>
</g>
<g>
</g>
<g>
</g>
<g>
</g>
<g>
</g>
<g>
</g>
<g>
</g>
<g>
</g>
<g>
</g>
<g>
</g>
<g>
</g>
<g>
</g>
<g>
</g>
<g>
</g>
<g>
</g>
</svg>
