<?xml version="1.0" encoding="iso-8859-1"?>
<!-- Generator: Adobe Illustrator 19.0.0, SVG Export Plug-In . SVG Version: 6.00 Build 0)  -->
<svg version="1.1" id="Layer_1" xmlns="http://www.w3.org/2000/svg" xmlns:xlink="http://www.w3.org/1999/xlink" x="0px" y="0px"
	 viewBox="0 0 491.52 491.52" style="enable-background:new 0 0 491.52 491.52;" xml:space="preserve">
<circle style="fill:#EFC84A;" cx="245.76" cy="245.76" r="245.76"/>
<path style="opacity:0.1;enable-background:new    ;" d="M486.259,296.452L332.39,142.551
	c-21.709-23.091-52.531-37.581-86.63-37.581c-65.485,0-118.784,53.299-118.784,118.783v56.064
	c-5.888,3.84-9.779,10.495-9.779,18.022c0,6.093,2.509,11.622,6.605,15.514l0.205,0.205l14.694,14.694v4.864
	c0,1.485,0.666,2.867,1.741,3.789l9.318,9.318v0.051c0,1.178,0.461,2.253,1.229,3.072l0.102,0.102l138.126,138.162
	C387.674,470.033,465.823,393.888,486.259,296.452z"/>
<path style="fill:#27A2DB;" d="M245.76,104.96c-65.494,0-118.776,53.286-118.776,118.78v71.321h5.061v-66.965
	c0-2.791,2.263-5.055,5.054-5.055c2.791,0,5.055,2.264,5.055,5.055v40.302h5.048V223.74c0-54.348,44.214-98.562,98.557-98.562
	s98.557,44.214,98.557,98.562v44.658h5.055v-40.302c0-2.791,2.264-5.055,5.055-5.055s5.054,2.264,5.054,5.055v66.965h5.055V223.74
	C364.536,158.246,311.254,104.96,245.76,104.96z"/>
<path style="fill:#EBF0F3;" d="M333.108,380.307h-87.348v-7.012h87.348c5.88,0,10.66-4.78,10.66-10.66v-28.688h7.012v28.688
	C350.78,372.377,342.85,380.307,333.108,380.307z"/>
<path style="fill:#FCD462;" d="M298.169,179.525H193.35c-2.599,0-4.706,2.107-4.706,4.706v57.155c0,2.599,2.107,4.707,4.706,4.707
	h9.101v20.531c0,2.306,2.787,3.46,4.418,1.83l22.361-22.361h68.939c2.599,0,4.707-2.108,4.707-4.707v-57.154
	C302.876,181.631,300.769,179.525,298.169,179.525z"/>
<g>
	<rect x="198.118" y="189.85" style="fill:#DC8744;" width="95.283" height="6.072"/>
	<rect x="198.118" y="209.249" style="fill:#DC8744;" width="95.283" height="6.072"/>
	<rect x="198.118" y="228.639" style="fill:#DC8744;" width="95.283" height="6.072"/>
</g>
<path style="fill:#64798A;" d="M337.233,244.927h-22.311c-2.491,0-4.51,2.019-4.51,4.51v96.843c0,2.49,2.019,4.51,4.51,4.51h22.311
	c2.491,0,4.51-2.019,4.51-4.51v-96.843C341.743,246.946,339.724,244.927,337.233,244.927z"/>
<path style="fill:#3A556A;" d="M347.73,257.55h-5.987v80.617h5.987c2.801,0,5.071-2.27,5.071-5.071v-70.475
	C352.802,259.82,350.531,257.55,347.73,257.55z"/>
<path style="fill:#2F4859;" d="M352.802,276.341v43.034c11.884,0,21.517-9.633,21.517-21.517
	C374.319,285.975,364.686,276.341,352.802,276.341z"/>
<path style="fill:#64798A;" d="M154.287,350.79h22.311c2.491,0,4.51-2.019,4.51-4.51v-96.843c0-2.49-2.019-4.51-4.51-4.51h-22.311
	c-2.491,0-4.51,2.019-4.51,4.51v96.843C149.777,348.771,151.796,350.79,154.287,350.79z"/>
<path style="fill:#3A556A;" d="M143.79,338.167h5.987V257.55h-5.987c-2.801,0-5.071,2.27-5.071,5.071v70.475
	C138.718,335.897,140.989,338.167,143.79,338.167z"/>
<path style="fill:#2F4859;" d="M138.718,319.375v-43.034c-11.884,0-21.517,9.633-21.517,21.517
	C117.201,309.742,126.834,319.375,138.718,319.375z"/>
<ellipse style="fill:#64798A;" cx="248.929" cy="375.962" rx="18.668" ry="10.609"/>
<g>
</g>
<g>
</g>
<g>
</g>
<g>
</g>
<g>
</g>
<g>
</g>
<g>
</g>
<g>
</g>
<g>
</g>
<g>
</g>
<g>
</g>
<g>
</g>
<g>
</g>
<g>
</g>
<g>
</g>
</svg>
