<?xml version="1.0" encoding="iso-8859-1"?>
<!-- Generator: Adobe Illustrator 19.0.0, SVG Export Plug-In . SVG Version: 6.00 Build 0)  -->
<svg version="1.1" id="Layer_1" xmlns="http://www.w3.org/2000/svg" xmlns:xlink="http://www.w3.org/1999/xlink" x="0px" y="0px"
	 viewBox="0 0 491.52 491.52" style="enable-background:new 0 0 491.52 491.52;" xml:space="preserve">
<circle style="fill:#EFC84A;" cx="245.76" cy="245.76" r="245.76"/>
<path style="opacity:0.1;enable-background:new    ;" d="M362.65,125.819c-1.28-1.229-3.021-1.997-4.915-1.997H247.962
	c-3.891,0-7.066,3.174-7.066,7.066v63.232c0,1.792,0.666,3.43,1.843,4.659l-0.051,0.051l0.307,0.256l16.486,16.538H110.541
	c-3.072,0-5.581,2.509-5.581,5.581v140.902c0,1.536,0.614,2.918,1.638,3.942l125.039,125.039c4.677,0.265,9.379,0.432,14.123,0.432
	c132.809,0,240.944-105.362,245.54-237.05L362.701,125.87L362.65,125.819z"/>
<path style="fill:#E1E6E9;" d="M380.993,220.763H110.526c-3.074,0-5.566,2.491-5.566,5.565v135.783c0,3.075,2.492,5.566,5.566,5.566
	h270.467c3.075,0,5.566-2.492,5.566-5.566V226.329C386.56,223.254,384.069,220.763,380.993,220.763z"/>
<path style="fill:#EBF0F3;" d="M380.993,215.643H110.526c-3.074,0-5.566,2.491-5.566,5.565v135.783c0,3.075,2.492,5.566,5.566,5.566
	h270.467c3.075,0,5.566-2.492,5.566-5.566V221.209C386.56,218.134,384.069,215.643,380.993,215.643z"/>
<g>
	<path style="fill:#64798A;" d="M130.599,243.413h-16.443c-0.516,0-0.933,0.417-0.933,0.93v6.894c0,0.515,0.417,0.931,0.933,0.931
		h16.443c0.516,0,0.933-0.417,0.933-0.931v-6.894C131.532,243.83,131.115,243.413,130.599,243.413z"/>
	<path style="fill:#64798A;" d="M155.276,243.413h-16.443c-0.516,0-0.933,0.417-0.933,0.93v6.894c0,0.515,0.417,0.931,0.933,0.931
		h16.443c0.516,0,0.933-0.417,0.933-0.931v-6.894C156.209,243.83,155.792,243.413,155.276,243.413z"/>
	<path style="fill:#64798A;" d="M179.952,243.413h-16.443c-0.516,0-0.933,0.417-0.933,0.93v6.894c0,0.515,0.417,0.931,0.933,0.931
		h16.443c0.516,0,0.933-0.417,0.933-0.931v-6.894C180.885,243.83,180.468,243.413,179.952,243.413z"/>
	<path style="fill:#64798A;" d="M204.629,243.413h-16.444c-0.516,0-0.932,0.417-0.932,0.93v6.894c0,0.515,0.417,0.931,0.932,0.931
		h16.444c0.516,0,0.932-0.417,0.932-0.931v-6.894C205.561,243.83,205.145,243.413,204.629,243.413z"/>
	<path style="fill:#64798A;" d="M229.305,243.413h-16.443c-0.516,0-0.933,0.417-0.933,0.93v6.894c0,0.515,0.417,0.931,0.933,0.931
		h16.443c0.516,0,0.933-0.417,0.933-0.931v-6.894C230.238,243.83,229.821,243.413,229.305,243.413z"/>
	<path style="fill:#64798A;" d="M253.982,243.413h-16.443c-0.516,0-0.933,0.417-0.933,0.93v6.894c0,0.515,0.417,0.931,0.933,0.931
		h16.443c0.516,0,0.933-0.417,0.933-0.931v-6.894C254.915,243.83,254.498,243.413,253.982,243.413z"/>
	<path style="fill:#64798A;" d="M278.658,243.413h-16.443c-0.516,0-0.933,0.417-0.933,0.93v6.894c0,0.515,0.417,0.931,0.933,0.931
		h16.443c0.516,0,0.933-0.417,0.933-0.931v-6.894C279.591,243.83,279.174,243.413,278.658,243.413z"/>
	<path style="fill:#64798A;" d="M303.335,243.413h-16.444c-0.516,0-0.932,0.417-0.932,0.93v6.894c0,0.515,0.417,0.931,0.932,0.931
		h16.444c0.516,0,0.932-0.417,0.932-0.931v-6.894C304.267,243.83,303.85,243.413,303.335,243.413z"/>
	<path style="fill:#64798A;" d="M328.011,243.413h-16.443c-0.516,0-0.933,0.417-0.933,0.93v6.894c0,0.515,0.417,0.931,0.933,0.931
		h16.443c0.516,0,0.933-0.417,0.933-0.931v-6.894C328.944,243.83,328.527,243.413,328.011,243.413z"/>
	<path style="fill:#64798A;" d="M352.688,243.413h-16.443c-0.516,0-0.933,0.417-0.933,0.93v6.894c0,0.515,0.417,0.931,0.933,0.931
		h16.443c0.516,0,0.933-0.417,0.933-0.931v-6.894C353.62,243.83,353.204,243.413,352.688,243.413z"/>
	<path style="fill:#64798A;" d="M377.364,243.413h-16.443c-0.516,0-0.932,0.417-0.932,0.93v6.894c0,0.515,0.416,0.931,0.932,0.931
		h16.443c0.516,0,0.933-0.417,0.933-0.931v-6.894C378.297,243.83,377.88,243.413,377.364,243.413z"/>
	<path style="fill:#64798A;" d="M131.402,261.468h-17.203c-0.54,0-0.976,0.417-0.976,0.93v14.477c0,0.515,0.436,0.931,0.976,0.931
		h17.203c0.54,0,0.976-0.417,0.976-0.931v-14.477C132.378,261.884,131.941,261.468,131.402,261.468z"/>
	<path style="fill:#64798A;" d="M157.218,261.468h-17.203c-0.54,0-0.976,0.417-0.976,0.93v14.477c0,0.515,0.436,0.931,0.976,0.931
		h17.203c0.54,0,0.976-0.417,0.976-0.931v-14.477C158.194,261.884,157.758,261.468,157.218,261.468z"/>
	<path style="fill:#64798A;" d="M183.034,261.468h-17.203c-0.54,0-0.976,0.417-0.976,0.93v14.477c0,0.515,0.436,0.931,0.976,0.931
		h17.203c0.54,0,0.976-0.417,0.976-0.931v-14.477C184.01,261.884,183.574,261.468,183.034,261.468z"/>
	<path style="fill:#64798A;" d="M208.85,261.468h-17.203c-0.54,0-0.976,0.417-0.976,0.93v14.477c0,0.515,0.436,0.931,0.976,0.931
		h17.203c0.54,0,0.976-0.417,0.976-0.931v-14.477C209.826,261.884,209.39,261.468,208.85,261.468z"/>
	<path style="fill:#64798A;" d="M234.666,261.468h-17.203c-0.54,0-0.976,0.417-0.976,0.93v14.477c0,0.515,0.436,0.931,0.976,0.931
		h17.203c0.54,0,0.976-0.417,0.976-0.931v-14.477C235.642,261.884,235.206,261.468,234.666,261.468z"/>
	<path style="fill:#64798A;" d="M260.483,261.468H243.28c-0.54,0-0.976,0.417-0.976,0.93v14.477c0,0.515,0.436,0.931,0.976,0.931
		h17.203c0.54,0,0.976-0.417,0.976-0.931v-14.477C261.458,261.884,261.022,261.468,260.483,261.468z"/>
	<path style="fill:#64798A;" d="M286.299,261.468h-17.203c-0.54,0-0.976,0.417-0.976,0.93v14.477c0,0.515,0.436,0.931,0.976,0.931
		h17.203c0.54,0,0.976-0.417,0.976-0.931v-14.477C287.274,261.884,286.838,261.468,286.299,261.468z"/>
	<path style="fill:#64798A;" d="M312.115,261.468h-17.203c-0.54,0-0.976,0.417-0.976,0.93v14.477c0,0.515,0.436,0.931,0.976,0.931
		h17.203c0.54,0,0.976-0.417,0.976-0.931v-14.477C313.091,261.884,312.655,261.468,312.115,261.468z"/>
	<path style="fill:#64798A;" d="M337.931,261.468h-17.203c-0.54,0-0.976,0.417-0.976,0.93v14.477c0,0.515,0.436,0.931,0.976,0.931
		h17.203c0.54,0,0.975-0.417,0.975-0.931v-14.477C338.907,261.884,338.471,261.468,337.931,261.468z"/>
	<path style="fill:#64798A;" d="M377.364,261.468h-31.803c-0.516,0-0.932,0.417-0.932,0.93v14.477c0,0.515,0.416,0.931,0.932,0.931
		h31.803c0.516,0,0.933-0.417,0.933-0.931v-14.477C378.297,261.884,377.88,261.468,377.364,261.468z"/>
	<path style="fill:#64798A;" d="M131.402,331.35h-17.203c-0.54,0-0.976,0.417-0.976,0.93v19.005c0,0.515,0.436,0.931,0.976,0.931
		h17.203c0.54,0,0.976-0.417,0.976-0.931V332.28C132.378,331.767,131.941,331.35,131.402,331.35z"/>
	<path style="fill:#64798A;" d="M157.218,331.35h-17.203c-0.54,0-0.976,0.417-0.976,0.93v19.005c0,0.515,0.436,0.931,0.976,0.931
		h17.203c0.54,0,0.976-0.417,0.976-0.931V332.28C158.194,331.767,157.758,331.35,157.218,331.35z"/>
	<path style="fill:#64798A;" d="M260.483,331.35h-94.651c-0.54,0-0.976,0.417-0.976,0.93v19.005c0,0.515,0.436,0.931,0.976,0.931
		h94.651c0.54,0,0.976-0.417,0.976-0.931V332.28C261.458,331.767,261.022,331.35,260.483,331.35z"/>
	<path style="fill:#64798A;" d="M286.299,331.35h-17.203c-0.54,0-0.976,0.417-0.976,0.93v19.005c0,0.515,0.436,0.931,0.976,0.931
		h17.203c0.54,0,0.976-0.417,0.976-0.931V332.28C287.274,331.767,286.838,331.35,286.299,331.35z"/>
	<path style="fill:#64798A;" d="M309.954,331.35H292.75c-0.54,0-0.975,0.417-0.975,0.93v19.005c0,0.515,0.436,0.931,0.975,0.931
		h17.203c0.54,0,0.976-0.417,0.976-0.931V332.28C310.929,331.767,310.493,331.35,309.954,331.35z"/>
	<path style="fill:#64798A;" d="M332.73,343.117h-17.203c-0.54,0-0.976,0.417-0.976,0.93v7.238c0,0.515,0.436,0.931,0.976,0.931
		h17.203c0.54,0,0.976-0.417,0.976-0.931v-7.238C333.706,343.534,333.269,343.117,332.73,343.117z"/>
	<path style="fill:#64798A;" d="M377.321,343.117h-17.203c-0.54,0-0.976,0.417-0.976,0.93v7.238c0,0.515,0.436,0.931,0.976,0.931
		h17.203c0.54,0,0.976-0.417,0.976-0.931v-7.238C378.297,343.534,377.861,343.117,377.321,343.117z"/>
	<path style="fill:#64798A;" d="M354.755,343.117h-17.203c-0.54,0-0.975,0.417-0.975,0.93v7.238c0,0.515,0.436,0.931,0.975,0.931
		h17.203c0.54,0,0.976-0.417,0.976-0.931v-7.238C355.73,343.534,355.294,343.117,354.755,343.117z"/>
	<path style="fill:#64798A;" d="M354.755,332.28h-17.203c-0.54,0-0.975,0.417-0.975,0.93v7.238c0,0.515,0.436,0.931,0.975,0.931
		h17.203c0.54,0,0.976-0.417,0.976-0.931v-7.238C355.73,332.697,355.294,332.28,354.755,332.28z"/>
	<path style="fill:#64798A;" d="M360.118,301.304h17.203c0.54,0,0.976-0.417,0.976-0.93v-14.478c0-0.515-0.436-0.931-0.976-0.931
		h-17.203c-0.54,0-0.976,0.417-0.976,0.931v14.478C359.142,300.887,359.579,301.304,360.118,301.304z"/>
	<path style="fill:#64798A;" d="M334.302,301.304h17.203c0.54,0,0.976-0.417,0.976-0.93v-14.478c0-0.515-0.436-0.931-0.976-0.931
		h-17.203c-0.54,0-0.976,0.417-0.976,0.931v14.478C333.326,300.887,333.762,301.304,334.302,301.304z"/>
	<path style="fill:#64798A;" d="M308.486,301.304h17.203c0.54,0,0.976-0.417,0.976-0.93v-14.478c0-0.515-0.436-0.931-0.976-0.931
		h-17.203c-0.54,0-0.976,0.417-0.976,0.931v14.478C307.51,300.887,307.946,301.304,308.486,301.304z"/>
	<path style="fill:#64798A;" d="M282.67,301.304h17.203c0.54,0,0.976-0.417,0.976-0.93v-14.478c0-0.515-0.436-0.931-0.976-0.931
		H282.67c-0.54,0-0.976,0.417-0.976,0.931v14.478C281.694,300.887,282.13,301.304,282.67,301.304z"/>
	<path style="fill:#64798A;" d="M256.853,301.304h17.203c0.54,0,0.975-0.417,0.975-0.93v-14.478c0-0.515-0.436-0.931-0.975-0.931
		h-17.203c-0.54,0-0.976,0.417-0.976,0.931v14.478C255.878,300.887,256.314,301.304,256.853,301.304z"/>
	<path style="fill:#64798A;" d="M231.037,301.304h17.203c0.54,0,0.976-0.417,0.976-0.93v-14.478c0-0.515-0.436-0.931-0.976-0.931
		h-17.203c-0.54,0-0.976,0.417-0.976,0.931v14.478C230.062,300.887,230.498,301.304,231.037,301.304z"/>
	<path style="fill:#64798A;" d="M205.221,301.304h17.203c0.54,0,0.976-0.417,0.976-0.93v-14.478c0-0.515-0.436-0.931-0.976-0.931
		h-17.203c-0.54,0-0.976,0.417-0.976,0.931v14.478C204.245,300.887,204.682,301.304,205.221,301.304z"/>
	<path style="fill:#64798A;" d="M179.405,301.304h17.203c0.54,0,0.976-0.417,0.976-0.93v-14.478c0-0.515-0.436-0.931-0.976-0.931
		h-17.203c-0.54,0-0.976,0.417-0.976,0.931v14.478C178.429,300.887,178.865,301.304,179.405,301.304z"/>
	<path style="fill:#64798A;" d="M153.589,301.304h17.203c0.54,0,0.976-0.417,0.976-0.93v-14.478c0-0.515-0.436-0.931-0.976-0.931
		h-17.203c-0.54,0-0.975,0.417-0.975,0.931v14.478C152.613,300.887,153.049,301.304,153.589,301.304z"/>
	<path style="fill:#64798A;" d="M114.156,301.304h31.803c0.516,0,0.933-0.417,0.933-0.93v-14.478c0-0.515-0.417-0.931-0.933-0.931
		h-31.803c-0.516,0-0.933,0.417-0.933,0.931v14.478C113.223,300.887,113.64,301.304,114.156,301.304z"/>
	<path style="fill:#64798A;" d="M318.397,324.803H335.6c0.54,0,0.976-0.417,0.976-0.93v-14.478c0-0.515-0.436-0.931-0.976-0.931
		h-17.203c-0.54,0-0.976,0.417-0.976,0.931v14.478C317.421,324.386,317.857,324.803,318.397,324.803z"/>
	<path style="fill:#64798A;" d="M292.581,324.803h17.203c0.54,0,0.976-0.417,0.976-0.93v-14.478c0-0.515-0.436-0.931-0.976-0.931
		h-17.203c-0.54,0-0.976,0.417-0.976,0.931v14.478C291.605,324.386,292.041,324.803,292.581,324.803z"/>
	<path style="fill:#64798A;" d="M266.765,324.803h17.203c0.54,0,0.976-0.417,0.976-0.93v-14.478c0-0.515-0.436-0.931-0.976-0.931
		h-17.203c-0.54,0-0.976,0.417-0.976,0.931v14.478C265.789,324.386,266.225,324.803,266.765,324.803z"/>
	<path style="fill:#64798A;" d="M240.949,324.803h17.203c0.54,0,0.976-0.417,0.976-0.93v-14.478c0-0.515-0.436-0.931-0.976-0.931
		h-17.203c-0.54,0-0.976,0.417-0.976,0.931v14.478C239.973,324.386,240.409,324.803,240.949,324.803z"/>
	<path style="fill:#64798A;" d="M215.133,324.803h17.203c0.54,0,0.976-0.417,0.976-0.93v-14.478c0-0.515-0.436-0.931-0.976-0.931
		h-17.203c-0.54,0-0.976,0.417-0.976,0.931v14.478C214.157,324.386,214.592,324.803,215.133,324.803z"/>
	<path style="fill:#64798A;" d="M189.316,324.803h17.203c0.54,0,0.976-0.417,0.976-0.93v-14.478c0-0.515-0.436-0.931-0.976-0.931
		h-17.203c-0.54,0-0.975,0.417-0.975,0.931v14.478C188.341,324.386,188.776,324.803,189.316,324.803z"/>
	<path style="fill:#64798A;" d="M163.5,324.803h17.203c0.54,0,0.975-0.417,0.975-0.93v-14.478c0-0.515-0.436-0.931-0.975-0.931
		H163.5c-0.54,0-0.976,0.417-0.976,0.931v14.478C162.524,324.386,162.96,324.803,163.5,324.803z"/>
	<path style="fill:#64798A;" d="M114.156,324.803h42.043c0.516,0,0.933-0.417,0.933-0.93v-14.478c0-0.515-0.417-0.931-0.933-0.931
		h-42.043c-0.516,0-0.933,0.417-0.933,0.931v14.478C113.223,324.386,113.64,324.803,114.156,324.803z"/>
	<path style="fill:#64798A;" d="M345.561,324.803h31.803c0.516,0,0.933-0.417,0.933-0.93v-14.478c0-0.515-0.417-0.931-0.933-0.931
		h-31.803c-0.516,0-0.932,0.417-0.932,0.931v14.478C344.628,324.386,345.044,324.803,345.561,324.803z"/>
</g>
<path style="fill:#E56353;" d="M357.753,123.842H247.955c-3.892,0-7.049,3.155-7.049,7.048v63.248c0,3.893,3.156,7.048,7.049,7.048
	h12.665v24.456c0,3.545,4.287,5.32,6.792,2.813l27.271-27.27h63.069c3.892,0,7.047-3.155,7.047-7.048V130.89
	C364.8,126.998,361.645,123.842,357.753,123.842z"/>
<g>
	<rect x="258.867" y="140.349" style="fill:#D15241;" width="88.013" height="7.68"/>
	<rect x="258.867" y="159.539" style="fill:#D15241;" width="88.013" height="7.68"/>
	<rect x="258.867" y="178.749" style="fill:#D15241;" width="88.013" height="7.68"/>
</g>
<g>
</g>
<g>
</g>
<g>
</g>
<g>
</g>
<g>
</g>
<g>
</g>
<g>
</g>
<g>
</g>
<g>
</g>
<g>
</g>
<g>
</g>
<g>
</g>
<g>
</g>
<g>
</g>
<g>
</g>
</svg>
