<?xml version="1.0" encoding="UTF-8"?>
<!DOCTYPE svg  PUBLIC '-//W3C//DTD SVG 1.1//EN'  'http://www.w3.org/Graphics/SVG/1.1/DTD/svg11.dtd'>
<svg enable-background="new 0 0 142 142" version="1.1" viewBox="0 0 142 142" xml:space="preserve" xmlns="http://www.w3.org/2000/svg">
	<path d="m86.83 0h-78.661c-4.504 0-8.169 3.665-8.169 8.169v51.161c0 1.078 0.215 2.105 0.596 3.049l-0.023 0.028 0.048 0.04c1.228 2.963 4.148 5.053 7.548 5.053h78.661c4.505 0 8.17-3.665 8.17-8.169v-51.162c0-4.504-3.665-8.169-8.17-8.169zm3.17 58.864l-16.439-19.901c-0.686 1.742-1.564 3.312-2.615 4.685l15.572 18.852h-78.349c-0.364 0-0.708-0.074-1.033-0.188l14.025-16.977c-0.645-1.935-1.088-4.03-1.292-6.288l-14.869 18.001v-47.613l16.465 16.078c0.582-1.712 1.306-3.342 2.153-4.886l-15.951-15.576c0.165-0.027 0.33-0.051 0.502-0.051h78.661c0.047 0 0.091 0.012 0.137 0.014l-14.549 12.712c0.826 1.536 1.48 3.187 1.955 4.932l15.627-13.654v49.86z" fill="#F7941E"/>
	<path d="m50.113 8.124c-16.568 0-27.54 13.034-27.54 28.057 0 14.433 10.751 23.196 22.975 23.196 5.303 0 9.132-0.663 13.55-2.651l-1.325-4.197c-2.946 1.473-6.996 2.283-10.752 2.283-10.972 0-18.777-6.922-18.777-19.293 0-14.139 9.794-22.901 21.134-22.901 11.414 0 17.601 7.364 17.601 17.01 0 8.542-3.977 12.592-7.144 12.445-2.062-0.074-2.577-2.062-1.841-6.407l2.209-13.697c-1.842-0.959-5.523-1.769-8.764-1.769-10.604 0-17.306 8.101-17.306 17.158 0 6.038 3.535 9.646 8.248 9.646 3.977 0 7.217-1.988 9.573-5.67h0.146c0.368 3.83 2.872 5.67 6.333 5.67 7.953 0 13.992-6.775 13.992-17.6 3e-3 -12.37-9.278-21.28-22.312-21.28zm1.4 25.184c-0.662 4.271-3.534 7.732-6.259 7.732-2.431 0-3.683-1.767-3.683-4.565 0-5.67 3.829-10.457 8.689-10.457 0.884 0 1.694 0.147 2.283 0.295l-1.03 6.995z" fill="#F7941E"/>
<g opacity=".4">
		<linearGradient id="c" x1="203.27" x2="203.27" y1="-274.29" y2="-206.79" gradientTransform="matrix(1 0 0 -1 -155.77 -137.73)" gradientUnits="userSpaceOnUse">
		<stop stop-color="#FBB040" stop-opacity="0" offset=".5706"/>
		<stop stop-color="#F7941E" offset="1"/>
	</linearGradient>
	<path d="m95 128.4v-51.168c0-4.504-3.665-8.168-8.17-8.168h-78.661c-3.401 0-6.32 2.089-7.548 5.052l-0.048 0.038 0.023 0.029c-0.381 0.945-0.596 1.971-0.596 3.049v51.162c0 4.506 3.665 8.17 8.169 8.17h78.661c4.505 0 8.17-3.66 8.17-8.16zm-5-0.84l-15.627-13.654c-0.475 1.744-1.129 3.396-1.955 4.933l14.549 12.711c-0.046 3e-3 -0.09 0.015-0.137 0.015h-78.661c-0.172 0-0.338-0.023-0.503-0.051l15.952-15.578c-0.848-1.543-1.572-3.174-2.153-4.887l-16.465 16.09v-47.614l14.87 18.002c0.203-2.259 0.646-4.354 1.292-6.289l-14.025-16.978c0.325-0.112 0.669-0.188 1.033-0.188h78.348l-15.573 18.852c1.05 1.373 1.93 2.942 2.616 4.687l16.439-19.902v49.86z" fill="url(#c)"/>
</g>
<g opacity=".4">
		<linearGradient id="d" x1="203.27" x2="203.27" y1="-266.17" y2="-214.92" gradientTransform="matrix(1 0 0 -1 -155.77 -137.73)" gradientUnits="userSpaceOnUse">
		<stop stop-color="#FBB040" stop-opacity="0" offset=".5706"/>
		<stop stop-color="#F7941E" offset="1"/>
	</linearGradient>
	<path d="m72.428 107.16c0-10.826-6.04-17.601-13.993-17.601-3.461 0-5.965 1.84-6.333 5.67h-0.146c-2.356-3.682-5.597-5.67-9.573-5.67-4.713 0-8.248 3.607-8.248 9.646 0 9.057 6.701 17.158 17.306 17.158 3.24 0 6.922-0.811 8.763-1.768l-2.209-13.697c-0.736-4.346-0.221-6.334 1.841-6.406 3.167-0.148 7.144 3.902 7.144 12.445 0 9.646-6.187 17.01-17.601 17.01-11.34 0-21.134-8.764-21.134-22.903 0-12.371 7.806-19.293 18.777-19.293 3.756 0 7.806 0.812 10.752 2.283l1.325-4.197c-4.418-1.987-8.247-2.649-13.55-2.649-12.224 0-22.975 8.762-22.975 23.194 0 15.021 10.972 28.058 27.54 28.058 13.033 0 22.314-8.91 22.314-21.28zm-19.884 3.09c-0.589 0.147-1.399 0.295-2.283 0.295-4.86 0-8.689-4.787-8.689-10.457 0-2.799 1.252-4.563 3.683-4.563 2.725 0 5.597 3.461 6.259 7.729l1.03 7z" fill="url(#d)"/>
</g>
</svg>
