<?xml version="1.0" encoding="iso-8859-1"?>
<!-- Generator: Adobe Illustrator 19.0.0, SVG Export Plug-In . SVG Version: 6.00 Build 0)  -->
<svg version="1.1" id="Capa_1" xmlns="http://www.w3.org/2000/svg" xmlns:xlink="http://www.w3.org/1999/xlink" x="0px" y="0px"
	 viewBox="0 0 58 58" style="enable-background:new 0 0 58 58;" xml:space="preserve">
<path style="fill:#BDC3C7;" d="M17.107,23.043h-4.1H13H8.9c-0.321,0-0.618-0.064-0.9-0.16V33h10V22.824
	C17.759,22.957,17.484,23.043,17.107,23.043z"/>
<path style="fill:#BDC3C7;" d="M49.107,23.043h-4.1H45h-4.1c-0.321,0-0.618-0.064-0.9-0.16V33h10V22.824
	C49.759,22.957,49.484,23.043,49.107,23.043z"/>
<path style="fill:#D6DCE5;" d="M56,58H2v-18.34C2,34.878,5.878,31,10.661,31H47.34c4.783,0,8.66,3.877,8.66,8.66V58z"/>
<path style="fill:#556080;" d="M35.153,9.149C29.7,5.703,29.004-0.049,29,0c-0.003-0.049-0.699,5.703-6.153,9.148
	c-2.584,1.633-3.663,4.663-2.372,7.227C21.037,17.491,22.242,18,23.637,18h5.677h0.01H35c1.395,0,1.963-0.509,2.525-1.625
	C38.816,13.812,37.737,10.781,35.153,9.149z"/>
<path style="fill:#8697CB;" d="M17.217,16.607c-3.939-2.489-4.441-6.643-4.444-6.607c-0.003-0.035-0.505,4.119-4.444,6.607
	c-1.866,1.179-2.645,3.368-1.713,5.219C7.023,22.633,7.893,23,8.9,23H13h0.007h4.1c1.008,0,1.418-0.368,1.824-1.174
	C19.863,19.975,19.084,17.787,17.217,16.607z"/>
<path style="fill:#BDC3C7;" d="M29,18h-0.01c0,0-5.89-0.014-5.995-0.024L23,31h12l-0.005-13.024C34.89,17.986,29,18,29,18z"/>
<path style="fill:#8697CB;" d="M49.217,16.607c-3.939-2.489-4.441-6.643-4.444-6.607c-0.003-0.035-0.505,4.119-4.444,6.607
	c-1.866,1.179-2.645,3.368-1.713,5.219C39.023,22.633,39.893,23,40.9,23H45h0.007h4.1c1.008,0,1.418-0.368,1.824-1.174
	C51.863,19.975,51.084,17.787,49.217,16.607z"/>
<g>
	<path style="fill:#D6DCE5;" d="M27,21c-0.552,0-1,0.447-1,1v6c0,0.553,0.448,1,1,1s1-0.447,1-1v-6C28,21.448,27.552,21,27,21z"/>
	<path style="fill:#D6DCE5;" d="M31,21c-0.552,0-1,0.447-1,1v6c0,0.553,0.448,1,1,1s1-0.447,1-1v-6C32,21.448,31.552,21,31,21z"/>
	<path style="fill:#D6DCE5;" d="M45,25c-0.552,0-1,0.447-1,1v2c0,0.553,0.448,1,1,1s1-0.447,1-1v-2C46,25.448,45.552,25,45,25z"/>
	<path style="fill:#D6DCE5;" d="M13,25c-0.552,0-1,0.447-1,1v2c0,0.553,0.448,1,1,1s1-0.447,1-1v-2C14,25.448,13.552,25,13,25z"/>
</g>
<path style="fill:#F69657;" d="M23,58V43.5c0-3.575,2.925-6.5,6.5-6.5h0c3.575,0,6.5,2.925,6.5,6.5V58H23z"/>
<path style="fill:#F4CF6C;" d="M27,58V45.5c0-1.355,1.145-2.5,2.5-2.5s2.5,1.145,2.5,2.5V58H27z"/>
<path style="fill:#556080;" d="M51,53H41V42c0-2.761,2.239-5,5-5h0c2.761,0,5,2.239,5,5V53z"/>
<path style="fill:#556080;" d="M17,53H7V42c0-2.761,2.239-5,5-5h0c2.761,0,5,2.239,5,5V53z"/>
<path style="fill:#8697CB;" d="M17,44v-2h-4v-4.899C12.677,37.035,12.343,37,12,37s-0.677,0.035-1,0.101V42H7v2h4v3H7v2h4v4h2v-4h4
	v-2h-4v-3H17z"/>
<path style="fill:#8697CB;" d="M51,44v-2h-4v-4.899C46.677,37.035,46.343,37,46,37s-0.677,0.035-1,0.101V42h-4v2h4v3h-4v2h4v4h2v-4
	h4v-2h-4v-3H51z"/>
<g>
</g>
<g>
</g>
<g>
</g>
<g>
</g>
<g>
</g>
<g>
</g>
<g>
</g>
<g>
</g>
<g>
</g>
<g>
</g>
<g>
</g>
<g>
</g>
<g>
</g>
<g>
</g>
<g>
</g>
</svg>
